<?xml version="1.0" encoding="UTF-8" standalone="no"?>
<!-- Created with Inkscape (http://www.inkscape.org/) -->

<svg
   width="22.320107mm"
   height="23.377575mm"
   viewBox="0 0 22.320106 23.377575"
   version="1.1"
   id="svg1"
   xmlns="http://www.w3.org/2000/svg"
   xmlns:svg="http://www.w3.org/2000/svg">
  <defs
     id="defs1" />
  <g
     id="layer1"
     transform="translate(-80.002764,-88.861904)">
    <path
       style="fill:#000000;stroke-width:0.264583"
       id="path16"
       d="M 11.227581,51.744513 C 10.59084,52.269545 -0.14918299,45.467706 -0.97068043,45.388716 -1.7921779,45.309726 -13.631488,49.940475 -14.15652,49.303734 -14.681552,48.666994 -7.8797128,37.92697 -7.8007227,37.105473 -7.7217325,36.283975 -12.352482,24.444665 -11.715741,23.919633 -11.079,23.394601 -0.33897697,30.19644 0.48252048,30.275431 1.3040179,30.354421 13.143328,25.723671 13.66836,26.360412 c 0.525032,0.636741 -6.2768072,11.376764 -6.3557973,12.198262 -0.07899,0.821497 4.5517593,12.660807 3.9150183,13.185839 z"
       transform="matrix(0.38037952,0,0,0.3757559,91.298604,74.58482)" />
    <path
       style="fill:#000000;stroke-width:0.264583"
       id="path19"
       d="M 11.227581,51.744513 C 10.59084,52.269545 -0.14918299,45.467706 -0.97068043,45.388716 -1.7921779,45.309726 -13.631488,49.940475 -14.15652,49.303734 -14.681552,48.666994 -7.8797128,37.92697 -7.8007227,37.105473 -7.7217325,36.283975 -12.352482,24.444665 -11.715741,23.919633 -11.079,23.394601 -0.33897697,30.19644 0.48252048,30.275431 1.3040179,30.354421 13.143328,25.723671 13.66836,26.360412 c 0.525032,0.636741 -6.2768072,11.376764 -6.3557973,12.198262 -0.07899,0.821497 4.5517593,12.660807 3.9150183,13.185839 z"
       transform="matrix(0.38037952,0,0,0.3757559,91.298604,97.68482)" />
    <path
       style="fill:#000000;stroke-width:0.264583"
       id="path20"
       d="M 11.227581,51.744513 C 10.59084,52.269545 -0.14918299,45.467706 -0.97068043,45.388716 -1.7921779,45.309726 -13.631488,49.940475 -14.15652,49.303734 -14.681552,48.666994 -7.8797128,37.92697 -7.8007227,37.105473 -7.7217325,36.283975 -12.352482,24.444665 -11.715741,23.919633 -11.079,23.394601 -0.33897697,30.19644 0.48252048,30.275431 1.3040179,30.354421 13.143328,25.723671 13.66836,26.360412 c 0.525032,0.636741 -6.2768072,11.376764 -6.3557973,12.198262 -0.07899,0.821497 4.5517593,12.660807 3.9150183,13.185839 z"
       transform="matrix(0.38037952,0,0,0.3757559,102.09861,84.88482)" />
    <path
       style="fill:#000000;stroke-width:0.264583"
       id="path21"
       d="M 11.227581,51.744513 C 10.59084,52.269545 -0.14918299,45.467706 -0.97068043,45.388716 -1.7921779,45.309726 -13.631488,49.940475 -14.15652,49.303734 -14.681552,48.666994 -7.8797128,37.92697 -7.8007227,37.105473 -7.7217325,36.283975 -12.352482,24.444665 -11.715741,23.919633 -11.079,23.394601 -0.33897697,30.19644 0.48252048,30.275431 1.3040179,30.354421 13.143328,25.723671 13.66836,26.360412 c 0.525032,0.636741 -6.2768072,11.376764 -6.3557973,12.198262 -0.07899,0.821497 4.5517593,12.660807 3.9150183,13.185839 z"
       transform="matrix(0.38037952,0,0,0.3757559,79.798607,84.88482)" />
  </g>
</svg>
